<svg xmlns="http://www.w3.org/2000/svg" version="1.0" width="512.000000pt" height="512.000000pt"
    viewBox="0 0 512.000000 512.000000" preserveAspectRatio="xMidYMid meet">

    <g transform="translate(0.000000,512.000000) scale(0.100000,-0.100000)" fill="#aa0101" stroke="none">
        <path
            d="M2340 5109 c-971 -90 -1795 -702 -2157 -1604 -143 -357 -206 -779 -173 -1155 54 -601 297 -1137 709 -1563 438 -453 999 -720 1631 -777 721 -64 1454 198 1983 709 393 380 647 852 742 1381 57 318 59 589 4 900 -153 875 -745 1604 -1574 1937 -356 143 -790 207 -1165 172z m660 -1254 l0 -365 -435 0 -435 0 0 365 0 365 435 0 435 0 0 -365z m-38 -1732 l3 -1018 238 -3 237 -2 0 -105 0 -105 -880 0 -880 0 0 105 0 105 240 0 240 0 0 910 0 910 -237 2 -238 3 -3 108 -3 107 641 0 640 0 2 -1017z" />
        <path d="M2347 4003 c-4 -3 -7 -71 -7 -150 l0 -143 220 0 220 0 0 150 0 150 -213 0 c-118 0 -217 -3 -220 -7z" />
        <path d="M2380 2010 l0 -910 183 2 182 3 3 908 2 907 -185 0 -185 0 0 -910z" />
    </g>
</svg>
